<svg xmlns="http://www.w3.org/2000/svg" width="168" height="36" viewBox="0 0 168 36"><defs><clipPath id="a"><path d="M111.483955,6.60049628 L114.436362,17.1612903 L114.545206,17.1612903 L117.701696,6.60049628 L122.327586,6.60049628 L122.327586,6.87841191 L114.99419,28 L110.341088,28 L110.341088,27.7220844 L112.436344,21.4828784 L111.701644,21.4828784 L107.075754,6.87841191 L107.075754,6.60049628 L111.483955,6.60049628 Z M9.48307503,1.30620347 C12.52165,1.30620347 14.8618063,2.25574855 16.5035438,4.15483871 C18.1362109,6.04466501 18.9525445,8.49958644 18.9525445,11.519603 C18.9525445,14.8545906 17.9774794,17.4623656 16.0273492,19.342928 L18.6532222,23.2754342 L18.6532222,23.5672457 L14.2994431,23.5672457 L12.7620149,21.2605459 C11.7733442,21.575517 10.6803643,21.7330025 9.48307503,21.7330025 C6.47171117,21.7330025 4.1406253,20.7788255 2.4898174,18.8704715 C0.829939135,16.9528536 0,14.5025641 0,11.519603 C0,8.527378 0.829939135,6.07245658 2.4898174,4.15483871 C4.13155493,2.25574855 6.4626408,1.30620347 9.48307503,1.30620347 Z M25.4696075,6.60049628 L25.4696075,14.8823821 C25.4696075,16.6980976 26.2678004,17.6059553 27.864186,17.6059553 C29.4424309,17.6059553 30.2315534,16.6980976 30.2315534,14.8823821 L30.2315534,6.60049628 L34.5173047,6.60049628 L34.5173047,15.5354839 C34.5173047,17.2770885 33.9730823,18.7454094 32.8846375,19.9404467 C31.7689816,21.1354839 30.0954978,21.7330025 27.864186,21.7330025 L27.8369749,21.7330025 C25.5965928,21.7330025 23.9321793,21.1354839 22.8437345,19.9404467 C21.7280787,18.7454094 21.1702507,17.2770885 21.1702507,15.5354839 L21.1702507,6.60049628 L25.4696075,6.60049628 Z M50.6126816,6.33647643 C52.6988674,6.33647643 54.3133939,6.90620347 55.4562609,8.04565757 C56.6081982,9.19437552 57.2385892,10.6673284 57.3474336,12.4645161 L53.0344713,12.4645161 C52.9528379,11.7882548 52.7034026,11.2370554 52.2861655,10.8109181 C51.8779987,10.3940447 51.3201707,10.1856079 50.6126816,10.1856079 C48.7169737,10.1856079 47.7691197,11.4640199 47.7691197,14.0208437 C47.7691197,16.6054591 48.7169737,17.8977667 50.6126816,17.8977667 C51.30203,17.8977667 51.8598579,17.6800662 52.2861655,17.244665 C52.7034026,16.8185277 52.9528379,16.2765922 53.0344713,15.6188586 L57.3474336,15.6188586 C57.2385892,17.434574 56.6172686,18.9075269 55.483472,20.0377171 C54.3496753,21.1679074 52.7623601,21.7330025 50.7215261,21.7330025 C48.4448625,21.7330025 46.6534638,21.0243176 45.3473301,19.6069479 C44.0411964,18.2173697 43.3881295,16.355335 43.3881295,14.0208437 C43.3881295,11.7326716 44.0185204,9.87526882 45.2793023,8.44863524 C46.5491545,7.04052936 48.3269476,6.33647643 50.6126816,6.33647643 Z M99.320585,6.33647643 C101.288856,6.33647643 102.83989,6.83209264 103.973686,7.82332506 C105.125624,8.83308519 105.701592,10.120761 105.701592,11.6863524 L105.701592,21.4828784 L101.851219,21.4828784 L101.551897,20.1488834 L101.443052,20.1488834 C100.517874,21.2049628 99.2162757,21.7330025 97.5382566,21.7330025 C95.941871,21.7330025 94.6992299,21.2976013 93.8103333,20.426799 C92.8942256,19.5559967 92.4361718,18.4397022 92.4361718,17.0779156 C92.4361718,15.6605459 92.9305071,14.5396195 93.9191778,13.7151365 C94.8897077,12.8999173 96.3455026,12.4923077 98.2865624,12.4923077 C99.5110628,12.4923077 100.554156,12.6358974 101.415841,12.9230769 L101.415841,11.6863524 C101.415841,11.1305211 101.238969,10.6858561 100.885224,10.3523573 C100.513339,10.0281224 99.9464407,9.86600496 99.1845294,9.86600496 C98.5133218,9.86600496 98.0008457,10.0188586 97.6471011,10.3245658 C97.2570751,10.6395368 97.0620621,11.0378825 97.0620621,11.519603 L93.048422,11.519603 C93.048422,10.0281224 93.5881092,8.78676592 94.6674836,7.7955335 C95.7287172,6.82282878 97.279751,6.33647643 99.320585,6.33647643 Z M41.5921956,6.60049628 L41.5921956,21.4828784 L37.2928388,21.4828784 L37.2928388,6.60049628 L41.5921956,6.60049628 Z M63.4427243,0.416873449 L63.4427243,12.0059553 L68.0686146,6.60049628 L73.0890661,6.60049628 L73.0890661,6.87841191 L67.1842532,13.6317618 L73.3883884,21.2049628 L73.3883884,21.4828784 L68.2182757,21.4828784 L63.4427243,15.3965261 L63.4427243,21.4828784 L59.4290843,21.4828784 L59.4290843,0.416873449 L63.4427243,0.416873449 Z M84.4769194,1.55632754 C86.4089089,1.55632754 87.9690131,2.17700579 89.1572319,3.41836228 C90.3273101,4.66898263 90.9123491,6.23920596 90.9123491,8.12903226 C90.9123491,10.0744417 90.3273101,11.6724566 89.1572319,12.9230769 C87.9690131,14.192225 86.4089089,14.826799 84.4769194,14.826799 L79.9870848,14.826799 L79.9870848,21.4828784 L75.6060946,21.4828784 L75.6060946,1.55632754 L84.4769194,1.55632754 Z M98.7899681,15.4243176 C98.1278309,15.4243176 97.6062844,15.5540116 97.2253288,15.8133995 C96.8534435,16.0635236 96.6675008,16.4062862 96.6675008,16.8416873 C96.6675008,17.2956162 96.8353027,17.6476427 97.1709065,17.8977667 C97.5246511,18.1849462 98.009916,18.328536 98.6267014,18.328536 C99.4702461,18.328536 100.145989,18.1108354 100.65393,17.6754342 C101.161871,17.2400331 101.415841,16.6980976 101.415841,16.0496278 L101.415841,15.91067 C100.626719,15.5864351 99.7514277,15.4243176 98.7899681,15.4243176 Z M9.48307503,5.34987593 C7.83226713,5.34987593 6.58509084,5.86865178 5.74154614,6.90620347 C4.88893108,7.95301902 4.46262354,9.49081886 4.46262354,11.519603 C4.46262354,13.5020678 4.89800145,15.0306038 5.76875726,16.1052109 C6.6304427,17.1705542 7.86854863,17.7032258 9.48307503,17.7032258 C9.58284913,17.7032258 9.87763626,17.6846981 10.3674364,17.6476427 L7.89122456,13.9096774 L7.89122456,13.6317618 L12.2041869,13.6317618 L13.5511373,15.6188586 C14.1769931,14.6090984 14.489921,13.2426799 14.489921,11.519603 C14.489921,9.49081886 14.0636134,7.95301902 13.2109984,6.90620347 C12.3674537,5.86865178 11.1248126,5.34987593 9.48307503,5.34987593 Z M83.6061636,5.51662531 L79.9870848,5.51662531 L79.9870848,10.8387097 L83.6061636,10.8387097 C85.5018716,10.8387097 86.4497256,9.93548387 86.4497256,8.12903226 C86.4497256,7.27675765 86.2002903,6.62365591 85.7014198,6.16972705 C85.1934789,5.73432589 84.4950602,5.51662531 83.6061636,5.51662531 Z M39.4697283,0 C40.2679212,0 40.9073825,0.217700579 41.3881123,0.653101737 C41.8416309,1.11629446 42.0683902,1.74160463 42.0683902,2.52903226 C42.0683902,3.31645988 41.8416309,3.94177006 41.3881123,4.40496278 C40.9164529,4.85889165 40.2769916,5.08585608 39.4697283,5.08585608 C38.635254,5.08585608 37.9957927,4.85889165 37.5513444,4.40496278 C37.1068962,3.97882548 36.884672,3.3535153 36.884672,2.52903226 C36.884672,1.73234078 37.1068962,1.1070306 37.5513444,0.653101737 C38.0048631,0.217700579 38.6443244,0 39.4697283,0 Z"/></clipPath><clipPath id="b"><path d="M8,0 C10.209139,-4.05812251e-16 12,1.790861 12,4 L12,16 C12,18.209139 10.209139,20 8,20 L4,20 C1.790861,20 2.705415e-16,18.209139 0,16 L0,4 C-2.705415e-16,1.790861 1.790861,4.05812251e-16 4,0 L8,0 Z"/></clipPath><clipPath id="d"><path d="M8,0 C10.209139,-4.05812251e-16 12,1.790861 12,4 L12,24 C12,26.209139 10.209139,28 8,28 L4,28 C1.790861,28 2.705415e-16,26.209139 0,24 L0,4 C-2.705415e-16,1.790861 1.790861,4.05812251e-16 4,0 L8,0 Z"/></clipPath><clipPath id="f"><path d="M8,0 C10.209139,-4.05812251e-16 12,1.790861 12,4 L12,32 C12,34.209139 10.209139,36 8,36 L4,36 C1.790861,36 2.705415e-16,34.209139 0,32 L0,4 C-2.705415e-16,1.790861 1.790861,4.05812251e-16 4,0 L8,0 Z"/></clipPath><linearGradient id="c" x1="6" x2="6" y1="0" y2="20" gradientUnits="userSpaceOnUse"><stop offset="0%" stop-color="#79CF39"/><stop offset="100%" stop-color="#B1E96B"/></linearGradient><linearGradient id="e" x1="6" x2="6" y1="0" y2="28" gradientUnits="userSpaceOnUse"><stop offset="0%" stop-color="#515DF5"/><stop offset="100%" stop-color="#8996FB"/></linearGradient><linearGradient id="g" x1="6" x2="6" y1="0" y2="36" gradientUnits="userSpaceOnUse"><stop offset="0%" stop-color="#A451F5"/><stop offset="100%" stop-color="#D089FB"/></linearGradient></defs><g clip-path="url(#a)" transform="translate(45 8)"><polygon fill="#FFF" points="0 0 122.328 0 122.328 28 0 28 0 0"/></g><g clip-path="url(#b)" transform="translate(0 16)"><polygon fill="url(#c)" points="0 0 12 0 12 20 0 20 0 0"/></g><g clip-path="url(#d)" transform="translate(12 8)"><polygon fill="url(#e)" points="0 0 12 0 12 28 0 28 0 0"/></g><g clip-path="url(#f)" transform="translate(24)"><polygon fill="url(#g)" points="0 0 12 0 12 36 0 36 0 0"/></g></svg>