<svg width="1000" height="1000" viewBox="0 0 1000 1000" fill="none" xmlns="http://www.w3.org/2000/svg">
<path d="M1000 0H0V1000H1000V0Z" fill="white"/>
<path opacity="0.1" d="M923.37 271H243.73C231.652 271.034 220.078 275.847 211.538 284.388C202.997 292.928 198.184 304.502 198.15 316.58C198.184 328.658 202.997 340.232 211.538 348.772C220.078 357.313 231.652 362.126 243.73 362.16H308.37C320.462 362.181 332.053 366.993 340.605 375.541C349.157 384.089 353.974 395.678 354 407.77C353.966 419.849 349.153 431.424 340.613 439.966C332.072 448.508 320.499 453.323 308.42 453.36H302.2C290.122 453.394 278.548 458.207 270.008 466.748C261.467 475.288 256.654 486.862 256.62 498.94C256.654 511.018 261.467 522.592 270.008 531.132C278.548 539.673 290.122 544.486 302.2 544.52H399.68C411.759 544.554 423.334 549.367 431.876 557.907C440.418 566.448 445.233 578.021 445.27 590.1C445.236 602.178 440.423 613.752 431.882 622.292C423.342 630.833 411.768 635.646 399.69 635.68H176.54C164.468 635.727 152.905 640.548 144.373 649.088C135.842 657.629 131.034 669.198 131 681.27C131.034 693.348 135.847 704.922 144.388 713.462C152.928 722.003 164.502 726.816 176.58 726.85H835.81C847.888 726.816 859.462 722.003 868.002 713.462C876.542 704.922 881.356 693.348 881.39 681.27C881.356 669.191 876.543 657.616 868.003 649.074C859.462 640.532 847.889 635.717 835.81 635.68H755.49C743.413 635.643 731.841 630.829 723.301 622.289C714.761 613.749 709.947 602.177 709.91 590.1C709.947 578.021 714.762 566.448 723.304 557.907C731.846 549.367 743.421 544.554 755.5 544.52H773.5C785.578 544.486 797.152 539.673 805.692 531.132C814.233 522.592 819.046 511.018 819.08 498.94C819.046 486.862 814.233 475.288 805.692 466.748C797.152 458.207 785.578 453.394 773.5 453.36H731.05C718.97 453.323 707.396 448.508 698.854 439.966C690.312 431.424 685.497 419.85 685.46 407.77C685.497 395.691 690.312 384.118 698.854 375.577C707.397 367.037 718.971 362.224 731.05 362.19H923.37C935.456 362.166 947.041 357.358 955.591 348.817C964.142 340.275 968.963 328.696 969 316.61C968.971 304.519 964.154 292.932 955.602 284.384C947.05 275.836 935.461 271.024 923.37 271Z" fill="#20313F"/>
<path d="M148.18 552.66C146.281 552.662 144.424 552.101 142.844 551.047C141.264 549.993 140.032 548.495 139.304 546.741C138.576 544.987 138.384 543.056 138.753 541.193C139.123 539.33 140.036 537.619 141.378 536.275C142.72 534.932 144.431 534.016 146.293 533.645C148.156 533.274 150.087 533.464 151.841 534.19C153.596 534.916 155.096 536.147 156.151 537.725C157.207 539.304 157.77 541.161 157.77 543.06C157.77 545.604 156.76 548.045 154.962 549.845C153.164 551.645 150.724 552.657 148.18 552.66ZM148.18 538.06C147.191 538.06 146.224 538.353 145.402 538.903C144.58 539.452 143.939 540.233 143.561 541.147C143.182 542.06 143.083 543.066 143.276 544.035C143.469 545.005 143.945 545.896 144.644 546.596C145.344 547.295 146.235 547.771 147.205 547.964C148.174 548.157 149.18 548.058 150.093 547.679C151.007 547.301 151.788 546.66 152.337 545.838C152.887 545.016 153.18 544.049 153.18 543.06C153.18 541.734 152.653 540.462 151.716 539.524C150.778 538.587 149.506 538.06 148.18 538.06Z" fill="#3D90C9"/>
<g opacity="0.2">
<path d="M759.84 390.49C757.645 390.49 755.499 389.839 753.673 388.619C751.848 387.4 750.425 385.666 749.585 383.638C748.745 381.61 748.525 379.378 748.953 377.225C749.382 375.071 750.439 373.093 751.991 371.541C753.543 369.989 755.521 368.932 757.674 368.503C759.828 368.075 762.059 368.295 764.088 369.135C766.116 369.975 767.85 371.398 769.069 373.223C770.289 375.049 770.94 377.195 770.94 379.39C770.937 382.333 769.767 385.155 767.686 387.236C765.605 389.317 762.783 390.487 759.84 390.49ZM759.84 373.6C758.695 373.6 757.575 373.94 756.623 374.576C755.671 375.212 754.929 376.116 754.491 377.174C754.052 378.232 753.938 379.396 754.161 380.52C754.385 381.643 754.936 382.674 755.746 383.484C756.556 384.294 757.587 384.845 758.71 385.069C759.834 385.292 760.998 385.178 762.056 384.739C763.114 384.301 764.018 383.559 764.654 382.607C765.29 381.655 765.63 380.535 765.63 379.39C765.627 377.855 765.016 376.384 763.931 375.299C762.846 374.214 761.375 373.603 759.84 373.6Z" fill="#20313F"/>
</g>
<path d="M764.4 219.3C762.785 217.683 761.686 215.623 761.241 213.381C760.796 211.139 761.026 208.815 761.902 206.704C762.777 204.593 764.259 202.788 766.159 201.519C768.06 200.249 770.294 199.572 772.58 199.572C774.866 199.572 777.1 200.249 779.001 201.519C780.901 202.788 782.383 204.593 783.259 206.704C784.134 208.815 784.364 211.139 783.919 213.381C783.474 215.623 782.375 217.683 780.76 219.3C778.588 221.464 775.646 222.679 772.58 222.679C769.514 222.679 766.572 221.464 764.4 219.3ZM776.84 206.86C775.998 206.027 774.929 205.462 773.767 205.236C772.605 205.009 771.402 205.132 770.309 205.588C769.216 206.044 768.283 206.813 767.627 207.798C766.97 208.783 766.62 209.941 766.62 211.125C766.62 212.309 766.97 213.467 767.627 214.452C768.283 215.437 769.216 216.206 770.309 216.662C771.402 217.118 772.605 217.241 773.767 217.014C774.929 216.788 775.998 216.223 776.84 215.39C777.404 214.832 777.852 214.168 778.157 213.436C778.463 212.704 778.62 211.918 778.62 211.125C778.62 210.332 778.463 209.546 778.157 208.814C777.852 208.082 777.404 207.418 776.84 206.86Z" fill="#3D90C9"/>
<path d="M632.79 152.88H628.4V149.56C628.421 149.23 628.375 148.899 628.263 148.587C628.151 148.276 627.977 147.991 627.75 147.749C627.524 147.508 627.251 147.315 626.947 147.184C626.643 147.052 626.316 146.985 625.985 146.985C625.654 146.985 625.327 147.052 625.023 147.184C624.719 147.315 624.446 147.508 624.22 147.749C623.993 147.991 623.819 148.276 623.707 148.587C623.595 148.899 623.549 149.23 623.57 149.56V152.88H619.17C618.556 152.92 617.981 153.191 617.56 153.64C617.14 154.088 616.905 154.68 616.905 155.295C616.905 155.91 617.14 156.502 617.56 156.95C617.981 157.399 618.556 157.67 619.17 157.71H623.57V161C623.549 161.33 623.595 161.661 623.707 161.973C623.819 162.284 623.993 162.569 624.22 162.811C624.446 163.052 624.719 163.245 625.023 163.376C625.327 163.508 625.654 163.575 625.985 163.575C626.316 163.575 626.643 163.508 626.947 163.376C627.251 163.245 627.524 163.052 627.75 162.811C627.977 162.569 628.151 162.284 628.263 161.973C628.375 161.661 628.421 161.33 628.4 161V157.67H632.79C633.12 157.691 633.451 157.645 633.763 157.533C634.074 157.421 634.359 157.247 634.601 157.02C634.842 156.794 635.035 156.521 635.166 156.217C635.298 155.913 635.365 155.586 635.365 155.255C635.365 154.924 635.298 154.597 635.166 154.293C635.035 153.989 634.842 153.716 634.601 153.49C634.359 153.263 634.074 153.089 633.763 152.977C633.451 152.865 633.12 152.819 632.79 152.84V152.88Z" fill="#3D90C9"/>
<path d="M410.56 84.76C408.782 84.76 407.044 84.2334 405.565 83.2466C404.086 82.2599 402.933 80.8572 402.25 79.2156C401.567 77.574 401.386 75.7669 401.729 74.0225C402.073 72.278 402.925 70.6743 404.179 69.4137C405.432 68.153 407.031 67.292 408.774 66.9391C410.516 66.5862 412.324 66.7573 413.97 67.4308C415.615 68.1043 417.024 69.2501 418.019 70.7236C419.014 72.197 419.55 73.9321 419.56 75.71C419.557 78.1008 418.61 80.3936 416.924 82.0888C415.238 83.784 412.951 84.7442 410.56 84.76ZM410.56 71C409.626 70.998 408.712 71.2734 407.934 71.7913C407.156 72.3092 406.55 73.0462 406.191 73.9091C405.833 74.772 405.738 75.7218 405.92 76.6384C406.102 77.5549 406.552 78.3968 407.212 79.0575C407.873 79.7182 408.715 80.168 409.632 80.3498C410.548 80.5316 411.498 80.4373 412.361 80.0788C413.224 79.7203 413.961 79.1138 414.479 78.3361C414.997 77.5583 415.272 76.6444 415.27 75.71C415.27 74.4608 414.774 73.2628 413.89 72.3795C413.007 71.4962 411.809 71 410.56 71Z" fill="#3D90C9"/>
<path d="M243.29 228.51C245.742 228.51 247.73 226.522 247.73 224.07C247.73 221.618 245.742 219.63 243.29 219.63C240.838 219.63 238.85 221.618 238.85 224.07C238.85 226.522 240.838 228.51 243.29 228.51Z" fill="#3D90C9"/>
<path opacity="0.2" d="M517.82 106.68C520.272 106.68 522.26 104.692 522.26 102.24C522.26 99.7879 520.272 97.8 517.82 97.8C515.368 97.8 513.38 99.7879 513.38 102.24C513.38 104.692 515.368 106.68 517.82 106.68Z" fill="#20313F"/>
<path d="M881.73 735.25V730.4H885.4C886.108 730.4 886.787 730.119 887.288 729.618C887.789 729.117 888.07 728.438 888.07 727.73C888.07 727.022 887.789 726.343 887.288 725.842C886.787 725.341 886.108 725.06 885.4 725.06H881.73V720.21C881.752 719.846 881.7 719.482 881.576 719.139C881.452 718.796 881.26 718.483 881.01 718.217C880.76 717.952 880.459 717.74 880.124 717.596C879.79 717.451 879.429 717.377 879.065 717.377C878.701 717.377 878.34 717.451 878.006 717.596C877.671 717.74 877.37 717.952 877.12 718.217C876.87 718.483 876.678 718.796 876.554 719.139C876.43 719.482 876.378 719.846 876.4 720.21V725.06H872.73C872.022 725.06 871.343 725.341 870.842 725.842C870.341 726.343 870.06 727.022 870.06 727.73C870.06 728.438 870.341 729.117 870.842 729.618C871.343 730.119 872.022 730.4 872.73 730.4H876.4V735.25C876.442 735.929 876.74 736.566 877.236 737.032C877.731 737.497 878.385 737.757 879.065 737.757C879.745 737.757 880.399 737.497 880.894 737.032C881.39 736.566 881.688 735.929 881.73 735.25Z" fill="#3D90C9"/>
<path d="M581.73 755.25V750.4H585.4C586.108 750.4 586.787 750.119 587.288 749.618C587.789 749.117 588.07 748.438 588.07 747.73C588.07 747.022 587.789 746.343 587.288 745.842C586.787 745.341 586.108 745.06 585.4 745.06H581.73V740.21C581.752 739.846 581.7 739.482 581.576 739.139C581.452 738.796 581.26 738.483 581.01 738.217C580.76 737.952 580.459 737.74 580.124 737.596C579.79 737.451 579.429 737.377 579.065 737.377C578.701 737.377 578.34 737.451 578.006 737.596C577.671 737.74 577.37 737.952 577.12 738.217C576.87 738.483 576.678 738.796 576.554 739.139C576.43 739.482 576.378 739.846 576.4 740.21V745.06H572.73C572.022 745.06 571.343 745.341 570.842 745.842C570.341 746.343 570.06 747.022 570.06 747.73C570.06 748.438 570.341 749.117 570.842 749.618C571.343 750.119 572.022 750.4 572.73 750.4H576.4V755.25C576.442 755.929 576.74 756.566 577.236 757.032C577.731 757.497 578.385 757.757 579.065 757.757C579.745 757.757 580.399 757.497 580.894 757.032C581.39 756.566 581.688 755.929 581.73 755.25Z" fill="#3D90C9"/>
<g opacity="0.2">
<path d="M809.14 751.43C809.138 749.75 809.634 748.108 810.566 746.71C811.498 745.313 812.823 744.223 814.374 743.579C815.925 742.935 817.633 742.765 819.28 743.092C820.928 743.418 822.441 744.226 823.63 745.413C824.818 746.6 825.628 748.113 825.956 749.76C826.285 751.407 826.117 753.115 825.475 754.667C824.832 756.219 823.744 757.545 822.348 758.478C820.951 759.412 819.31 759.91 817.63 759.91C815.381 759.907 813.224 759.013 811.633 757.424C810.042 755.834 809.145 753.679 809.14 751.43ZM822.05 751.43C822.052 750.553 821.794 749.695 821.308 748.965C820.822 748.235 820.13 747.666 819.32 747.329C818.51 746.993 817.619 746.904 816.758 747.075C815.898 747.245 815.108 747.667 814.488 748.288C813.867 748.908 813.445 749.698 813.275 750.558C813.104 751.418 813.193 752.31 813.529 753.12C813.866 753.93 814.435 754.622 815.165 755.108C815.895 755.594 816.753 755.852 817.63 755.85C818.801 755.845 819.922 755.377 820.75 754.55C821.577 753.722 822.045 752.601 822.05 751.43Z" fill="#20313F"/>
</g>
<path opacity="0.2" d="M202.48 612.5V616.66H199.33C198.748 616.698 198.201 616.957 197.802 617.383C197.404 617.809 197.182 618.371 197.182 618.955C197.182 619.539 197.404 620.101 197.802 620.527C198.201 620.953 198.748 621.212 199.33 621.25H202.48V625.41C202.459 625.724 202.503 626.039 202.609 626.336C202.715 626.632 202.881 626.904 203.096 627.133C203.311 627.363 203.571 627.546 203.86 627.672C204.149 627.797 204.46 627.862 204.775 627.862C205.09 627.862 205.401 627.797 205.69 627.672C205.979 627.546 206.239 627.363 206.454 627.133C206.669 626.904 206.835 626.632 206.941 626.336C207.047 626.039 207.091 625.724 207.07 625.41V621.25H210.22C210.802 621.212 211.349 620.953 211.748 620.527C212.146 620.101 212.368 619.539 212.368 618.955C212.368 618.371 212.146 617.809 211.748 617.383C211.349 616.957 210.802 616.698 210.22 616.66H207.07V612.5C207.091 612.186 207.047 611.871 206.941 611.574C206.835 611.278 206.669 611.006 206.454 610.777C206.239 610.547 205.979 610.364 205.69 610.238C205.401 610.113 205.09 610.048 204.775 610.048C204.46 610.048 204.149 610.113 203.86 610.238C203.571 610.364 203.311 610.547 203.096 610.777C202.881 611.006 202.715 611.278 202.609 611.574C202.503 611.871 202.459 612.186 202.48 612.5Z" fill="#20313F"/>
<g opacity="0.2">
<path d="M429.83 820C431.074 821.264 431.917 822.868 432.252 824.61C432.588 826.352 432.401 828.154 431.716 829.79C431.031 831.426 429.877 832.823 428.4 833.806C426.923 834.788 425.189 835.312 423.415 835.312C421.641 835.312 419.907 834.788 418.43 833.806C416.953 832.823 415.799 831.426 415.114 829.79C414.429 828.154 414.242 826.352 414.577 824.61C414.913 822.868 415.756 821.264 417 820C417.842 819.156 418.841 818.487 419.942 818.03C421.043 817.573 422.223 817.338 423.415 817.338C424.607 817.338 425.787 817.573 426.888 818.03C427.989 818.487 428.988 819.156 429.83 820ZM420.1 829.73C420.76 830.391 421.601 830.841 422.517 831.024C423.432 831.207 424.382 831.113 425.245 830.756C426.108 830.399 426.845 829.794 427.364 829.018C427.883 828.242 428.16 827.329 428.16 826.395C428.16 825.461 427.883 824.548 427.364 823.772C426.845 822.996 426.108 822.391 425.245 822.034C424.382 821.677 423.432 821.584 422.517 821.766C421.601 821.949 420.76 822.399 420.1 823.06C419.659 823.499 419.31 824.02 419.071 824.594C418.833 825.168 418.71 825.783 418.71 826.405C418.71 827.027 418.833 827.642 419.071 828.216C419.31 828.79 419.659 829.311 420.1 829.75V829.73Z" fill="#20313F"/>
</g>
<path opacity="0.1" d="M701.4 689.97V230.13C701.4 222.398 695.132 216.13 687.4 216.13L351.31 216.13C343.578 216.13 337.31 222.398 337.31 230.13L337.31 689.97C337.31 697.702 343.578 703.97 351.31 703.97H687.4C695.132 703.97 701.4 697.702 701.4 689.97Z" fill="#20313F"/>
<g style="mix-blend-mode:overlay" opacity="0.5">
<path d="M694.07 219.29H362.98C356.076 219.29 350.48 224.886 350.48 231.79V686.63C350.48 693.534 356.076 699.13 362.98 699.13H694.07C700.974 699.13 706.57 693.534 706.57 686.63V231.79C706.57 224.886 700.974 219.29 694.07 219.29Z" fill="#231F20"/>
</g>
<path d="M706.4 684.97V225.13C706.4 217.398 700.132 211.13 692.4 211.13L356.31 211.13C348.578 211.13 342.31 217.398 342.31 225.13L342.31 684.97C342.31 692.702 348.578 698.97 356.31 698.97H692.4C700.132 698.97 706.4 692.702 706.4 684.97Z" fill="#25353A"/>
<path d="M692.4 215.13H356.31C350.787 215.13 346.31 219.607 346.31 225.13V684.97C346.31 690.493 350.787 694.97 356.31 694.97H692.4C697.923 694.97 702.4 690.493 702.4 684.97V225.13C702.4 219.607 697.923 215.13 692.4 215.13Z" fill="white"/>
<path d="M463.17 252.9H468V274.74H463.13L463.17 252.9Z" fill="#2282A8"/>
<path d="M488.68 252.9H493.56V274.74H488.68L478.28 261.06V274.74H473.41V252.9H478L488.68 267V252.9Z" fill="#2282A8"/>
<path d="M507 266.8L512.56 252.9H517.83L509.06 274.74H504.93L496.16 252.9H501.44L507 266.8Z" fill="#2282A8"/>
<path d="M538.28 271.72C536.073 273.794 533.159 274.949 530.13 274.949C527.101 274.949 524.187 273.794 521.98 271.72C519.86 269.581 518.67 266.692 518.67 263.68C518.67 260.668 519.86 257.779 521.98 255.64C524.183 253.559 527.099 252.4 530.13 252.4C533.161 252.4 536.077 253.559 538.28 255.64C540.4 257.779 541.59 260.668 541.59 263.68C541.59 266.692 540.4 269.581 538.28 271.72ZM536.63 263.72C536.672 261.873 535.998 260.082 534.75 258.72C534.17 258.072 533.461 257.554 532.667 257.2C531.874 256.845 531.014 256.661 530.145 256.661C529.276 256.661 528.416 256.845 527.623 257.2C526.829 257.554 526.12 258.072 525.54 258.72C524.292 260.082 523.618 261.873 523.66 263.72C523.611 265.568 524.285 267.362 525.54 268.72C526.121 269.365 526.832 269.88 527.625 270.233C528.418 270.586 529.277 270.769 530.145 270.769C531.013 270.769 531.872 270.586 532.665 270.233C533.458 269.88 534.169 269.365 534.75 268.72C536.012 267.355 536.687 265.548 536.63 263.69V263.72Z" fill="#2282A8"/>
<path d="M545.71 252.9H550.59V274.74H545.71V252.9Z" fill="#2282A8"/>
<path d="M566 270.43C567.136 270.453 568.26 270.207 569.282 269.712C570.305 269.216 571.195 268.486 571.88 267.58L575 270.8C573.97 272.025 572.701 273.027 571.27 273.745C569.84 274.462 568.278 274.881 566.68 274.974C565.083 275.068 563.482 274.835 561.978 274.289C560.473 273.743 559.096 272.896 557.93 271.8C556.863 270.764 556.022 269.519 555.461 268.142C554.9 266.765 554.631 265.286 554.67 263.8C554.632 262.292 554.908 260.793 555.479 259.397C556.051 258.001 556.906 256.739 557.99 255.69C559.06 254.63 560.331 253.796 561.73 253.238C563.128 252.68 564.625 252.408 566.13 252.44C567.84 252.412 569.536 252.766 571.092 253.475C572.649 254.184 574.028 255.231 575.13 256.54L572.13 259.97C571.466 259.075 570.6 258.348 569.603 257.849C568.606 257.351 567.505 257.094 566.39 257.1C564.651 257.065 562.965 257.707 561.69 258.89C561.027 259.504 560.505 260.255 560.16 261.091C559.814 261.926 559.654 262.827 559.69 263.73C559.648 264.627 559.79 265.524 560.106 266.364C560.423 267.205 560.907 267.973 561.53 268.62C562.113 269.21 562.81 269.675 563.578 269.986C564.347 270.298 565.171 270.449 566 270.43Z" fill="#2282A8"/>
<path d="M594.56 252.9V257.24H583.69V261.74H593.47V265.9H583.69V270.43H594.91V274.74H578.82V252.9H594.56Z" fill="#2282A8"/>
<path d="M579.71 293.16H477.34C475.153 293.16 473.38 294.933 473.38 297.12C473.38 299.307 475.153 301.08 477.34 301.08H579.71C581.897 301.08 583.67 299.307 583.67 297.12C583.67 294.933 581.897 293.16 579.71 293.16Z" fill="#AAD8E8"/>
<path d="M569.41 326.5H487.63C485.443 326.5 483.67 328.273 483.67 330.46C483.67 332.647 485.443 334.42 487.63 334.42H569.41C571.597 334.42 573.37 332.647 573.37 330.46C573.37 328.273 571.597 326.5 569.41 326.5Z" fill="#AAD8E8"/>
<path d="M565.02 309.83H492.01C489.823 309.83 488.05 311.603 488.05 313.79C488.05 315.977 489.823 317.75 492.01 317.75H565.02C567.207 317.75 568.98 315.977 568.98 313.79C568.98 311.603 567.207 309.83 565.02 309.83Z" fill="#AAD8E8"/>
<path d="M675.88 356.44H372.45V547.23H675.88V356.44Z" fill="#AAD8E8"/>
<path d="M671.71 543.07V380.99H376.61V543.07H671.71Z" fill="white"/>
<path d="M480.39 400.55H398.61C396.423 400.55 394.65 402.323 394.65 404.51C394.65 406.697 396.423 408.47 398.61 408.47H480.39C482.577 408.47 484.35 406.697 484.35 404.51C484.35 402.323 482.577 400.55 480.39 400.55Z" fill="#AAD8E8"/>
<path d="M647.07 400.55H617.24C615.053 400.55 613.28 402.323 613.28 404.51C613.28 406.697 615.053 408.47 617.24 408.47H647.07C649.257 408.47 651.03 406.697 651.03 404.51C651.03 402.323 649.257 400.55 647.07 400.55Z" fill="#AAD8E8"/>
<path d="M647.07 425.55H617.24C615.053 425.55 613.28 427.323 613.28 429.51C613.28 431.697 615.053 433.47 617.24 433.47H647.07C649.257 433.47 651.03 431.697 651.03 429.51C651.03 427.323 649.257 425.55 647.07 425.55Z" fill="#AAD8E8"/>
<path d="M647.07 450.55H617.24C615.053 450.55 613.28 452.323 613.28 454.51C613.28 456.697 615.053 458.47 617.24 458.47H647.07C649.257 458.47 651.03 456.697 651.03 454.51C651.03 452.323 649.257 450.55 647.07 450.55Z" fill="#AAD8E8"/>
<path d="M647.07 475.55H617.24C615.053 475.55 613.28 477.323 613.28 479.51C613.28 481.697 615.053 483.47 617.24 483.47H647.07C649.257 483.47 651.03 481.697 651.03 479.51C651.03 477.323 649.257 475.55 647.07 475.55Z" fill="#AAD8E8"/>
<path d="M647.07 500.55H617.24C615.053 500.55 613.28 502.323 613.28 504.51C613.28 506.697 615.053 508.47 617.24 508.47H647.07C649.257 508.47 651.03 506.697 651.03 504.51C651.03 502.323 649.257 500.55 647.07 500.55Z" fill="#AAD8E8"/>
<path d="M495.62 425.55H398.61C396.423 425.55 394.65 427.323 394.65 429.51C394.65 431.697 396.423 433.47 398.61 433.47H495.62C497.807 433.47 499.58 431.697 499.58 429.51C499.58 427.323 497.807 425.55 495.62 425.55Z" fill="#AAD8E8"/>
<path d="M447.76 475.55H398.61C396.423 475.55 394.65 477.323 394.65 479.51C394.65 481.697 396.423 483.47 398.61 483.47H447.76C449.947 483.47 451.72 481.697 451.72 479.51C451.72 477.323 449.947 475.55 447.76 475.55Z" fill="#AAD8E8"/>
<path d="M499.08 500.55H398.61C396.423 500.55 394.65 502.323 394.65 504.51C394.65 506.697 396.423 508.47 398.61 508.47H499.08C501.267 508.47 503.04 506.697 503.04 504.51C503.04 502.323 501.267 500.55 499.08 500.55Z" fill="#AAD8E8"/>
<path d="M463.44 450.55H398.61C396.423 450.55 394.65 452.323 394.65 454.51C394.65 456.697 396.423 458.47 398.61 458.47H463.44C465.627 458.47 467.4 456.697 467.4 454.51C467.4 452.323 465.627 450.55 463.44 450.55Z" fill="#AAD8E8"/>
<path d="M526.62 450.55H479.45C477.263 450.55 475.49 452.323 475.49 454.51C475.49 456.697 477.263 458.47 479.45 458.47H526.62C528.807 458.47 530.58 456.697 530.58 454.51C530.58 452.323 528.807 450.55 526.62 450.55Z" fill="#AAD8E8"/>
<path d="M647.06 563.21H591.23C589.043 563.21 587.27 564.983 587.27 567.17C587.27 569.357 589.043 571.13 591.23 571.13H647.06C649.247 571.13 651.02 569.357 651.02 567.17C651.02 564.983 649.247 563.21 647.06 563.21Z" fill="#AAD8E8"/>
<path d="M647.07 579.88H565.54C563.353 579.88 561.58 581.653 561.58 583.84C561.58 586.027 563.353 587.8 565.54 587.8H647.07C649.257 587.8 651.03 586.027 651.03 583.84C651.03 581.653 649.257 579.88 647.07 579.88Z" fill="#AAD8E8"/>
<path d="M432.24 635.35H376.41C374.223 635.35 372.45 637.123 372.45 639.31C372.45 641.497 374.223 643.27 376.41 643.27H432.24C434.427 643.27 436.2 641.497 436.2 639.31C436.2 637.123 434.427 635.35 432.24 635.35Z" fill="#AAD8E8"/>
<path d="M457.94 652.76H376.41C374.223 652.76 372.45 654.533 372.45 656.72C372.45 658.907 374.223 660.68 376.41 660.68H457.94C460.127 660.68 461.9 658.907 461.9 656.72C461.9 654.533 460.127 652.76 457.94 652.76Z" fill="#AAD8E8"/>
<path d="M575.4 563.21H547.77C545.583 563.21 543.81 564.983 543.81 567.17C543.81 569.357 545.583 571.13 547.77 571.13H575.4C577.587 571.13 579.36 569.357 579.36 567.17C579.36 564.983 577.587 563.21 575.4 563.21Z" fill="#AAD8E8"/>
<path d="M630.35 585.23C623.958 585.23 617.709 587.126 612.394 590.677C607.079 594.228 602.936 599.276 600.49 605.182C598.044 611.087 597.404 617.586 598.651 623.855C599.898 630.125 602.976 635.884 607.496 640.404C612.016 644.924 617.775 648.002 624.045 649.249C630.314 650.496 636.813 649.856 642.718 647.41C648.624 644.964 653.672 640.821 657.223 635.506C660.774 630.191 662.67 623.942 662.67 617.55C662.659 608.981 659.251 600.767 653.192 594.708C647.133 588.649 638.919 585.241 630.35 585.23ZM630.35 647.13C624.497 647.13 618.776 645.394 613.91 642.143C609.043 638.891 605.251 634.269 603.011 628.861C600.772 623.454 600.187 617.504 601.329 611.764C602.472 606.023 605.291 600.751 609.43 596.613C613.569 592.475 618.843 589.658 624.583 588.517C630.324 587.377 636.274 587.964 641.681 590.205C647.087 592.446 651.708 596.241 654.958 601.108C658.208 605.975 659.942 611.697 659.94 617.55C659.929 625.394 656.808 632.913 651.261 638.458C645.714 644.003 638.194 647.122 630.35 647.13Z" fill="#85CCE8"/>
<path d="M630.35 581.36C623.192 581.36 616.195 583.482 610.244 587.459C604.292 591.436 599.654 597.088 596.915 603.701C594.176 610.314 593.459 617.59 594.855 624.61C596.252 631.63 599.699 638.079 604.76 643.14C609.821 648.201 616.269 651.648 623.29 653.045C630.31 654.441 637.586 653.724 644.199 650.985C650.812 648.246 656.464 643.607 660.441 637.656C664.417 631.705 666.54 624.708 666.54 617.55C666.532 607.954 662.717 598.754 655.931 591.969C649.146 585.183 639.946 581.368 630.35 581.36ZM630.35 651.75C623.583 651.752 616.967 649.747 611.34 645.989C605.713 642.23 601.327 636.888 598.736 630.636C596.145 624.385 595.467 617.505 596.787 610.868C598.107 604.231 601.365 598.135 606.15 593.35C610.935 588.565 617.031 585.307 623.668 583.987C630.305 582.667 637.185 583.345 643.436 585.936C649.688 588.526 655.03 592.913 658.789 598.54C662.547 604.167 664.552 610.783 664.55 617.55C664.539 626.617 660.933 635.31 654.521 641.721C648.11 648.133 639.417 651.739 630.35 651.75Z" fill="#85CCE8"/>
<path d="M630.35 643.72C644.803 643.72 656.52 632.003 656.52 617.55C656.52 603.097 644.803 591.38 630.35 591.38C615.897 591.38 604.18 603.097 604.18 617.55C604.18 632.003 615.897 643.72 630.35 643.72Z" fill="#85CCE8"/>
<path d="M625.47 582.47L630.35 576.27L635.23 582.47H625.47Z" fill="#85CCE8"/>
<path d="M616.56 584.93L619.67 577.68L625.98 582.4L616.56 584.93Z" fill="#85CCE8"/>
<path d="M608.59 589.61L609.71 581.8L617.04 584.73L608.59 589.61Z" fill="#85CCE8"/>
<path d="M602.1 596.2L601.16 588.36L609 589.29L602.1 596.2Z" fill="#85CCE8"/>
<path d="M597.53 604.23L594.61 596.91L602.41 595.78L597.53 604.23Z" fill="#85CCE8"/>
<path d="M595.21 613.18L590.48 606.86L597.73 603.75L595.21 613.18Z" fill="#85CCE8"/>
<path d="M595.27 622.42L589.08 617.55L595.27 612.67V622.42Z" fill="#85CCE8"/>
<path d="M597.73 631.34L590.48 628.23L595.21 621.91L597.73 631.34Z" fill="#85CCE8"/>
<path d="M602.41 639.31L594.61 638.18L597.53 630.86L602.41 639.31Z" fill="#85CCE8"/>
<path d="M609 645.8L601.16 646.73L602.1 638.9L609 645.8Z" fill="#85CCE8"/>
<path d="M617.04 650.36L609.71 653.29L608.59 645.48L617.04 650.36Z" fill="#85CCE8"/>
<path d="M625.98 652.69L619.67 657.41L616.56 650.16L625.98 652.69Z" fill="#85CCE8"/>
<path d="M635.23 652.62L630.35 658.82L625.47 652.62H635.23Z" fill="#85CCE8"/>
<path d="M644.14 650.16L641.03 657.41L634.71 652.69L644.14 650.16Z" fill="#85CCE8"/>
<path d="M652.11 645.48L650.98 653.29L643.66 650.36L652.11 645.48Z" fill="#85CCE8"/>
<path d="M658.6 638.9L659.53 646.73L651.7 645.8L658.6 638.9Z" fill="#85CCE8"/>
<path d="M663.16 630.86L666.09 638.18L658.28 639.31L663.16 630.86Z" fill="#85CCE8"/>
<path d="M665.49 621.91L670.21 628.23L662.96 631.34L665.49 621.91Z" fill="#85CCE8"/>
<path d="M665.42 612.67L671.62 617.55L665.42 622.42V612.67Z" fill="#85CCE8"/>
<path d="M662.96 603.75L670.21 606.86L665.49 613.18L662.96 603.75Z" fill="#85CCE8"/>
<path d="M658.28 595.78L666.09 596.91L663.16 604.23L658.28 595.78Z" fill="#85CCE8"/>
<path d="M651.7 589.29L659.53 588.36L658.6 596.2L651.7 589.29Z" fill="#85CCE8"/>
<path d="M643.66 584.73L650.98 581.8L652.11 589.61L643.66 584.73Z" fill="#85CCE8"/>
<path d="M634.71 582.4L641.03 577.68L644.14 584.93L634.71 582.4Z" fill="#85CCE8"/>
<path opacity="0.1" d="M208.59 160.7C207.365 160.503 206.207 160.006 205.22 159.254C204.232 158.503 203.446 157.519 202.93 156.39C202.289 155.022 202.08 153.49 202.33 152L203.79 143C204.116 141.016 205.217 139.242 206.85 138.068C208.483 136.894 210.515 136.417 212.5 136.74L419.5 170.56L460.85 189.56L415.59 194.45L208.59 160.7Z" fill="#20313F"/>
<path opacity="0.1" d="M762.59 725.92C758.327 725.912 754.211 724.36 751.005 721.55C747.798 718.741 745.718 714.865 745.15 710.64H745V708.8C745 708.64 745 708.49 745 708.33V701.14L745.69 602.14C745.063 601.508 744.567 600.758 744.23 599.933C743.894 599.109 743.724 598.226 743.731 597.335C743.737 596.445 743.92 595.565 744.268 594.745C744.617 593.925 745.123 593.183 745.76 592.56L746.67 462.67H748.67V455.5C748.672 454.407 748.94 453.331 749.453 452.365C749.965 451.4 750.706 450.574 751.61 449.96L748.48 434.49L750.54 432.98C752.337 431.545 753.919 429.862 755.24 427.98C756.47 426.2 757.99 419.14 758.71 413.63L762.71 409.63L766.71 413.63C767.43 419.15 768.96 426.2 770.18 427.98C771.504 429.866 773.094 431.55 774.9 432.98L776.9 434.49L776.41 436.99L773.78 449.99C774.684 450.604 775.425 451.43 775.937 452.395C776.449 453.361 776.718 454.437 776.72 455.53V461.87V462.7H778.46L779.37 592.59C780.005 593.214 780.51 593.958 780.856 594.777C781.203 595.597 781.384 596.477 781.39 597.368C781.396 598.258 781.225 599.14 780.889 599.964C780.553 600.788 780.057 601.538 779.43 602.17L780.13 701.17V705.17V710.67H780C779.428 714.885 777.35 718.751 774.15 721.554C770.95 724.357 766.844 725.908 762.59 725.92Z" fill="#20313F"/>
<path d="M502.5 554L397.1 537.3C394.185 536.842 391.207 537.558 388.819 539.292C386.43 541.026 384.827 543.636 384.36 546.55L379.36 577.95C378.902 580.865 379.618 583.843 381.352 586.232C383.086 588.62 385.696 590.223 388.61 590.69L494 607.43C496.916 607.891 499.895 607.175 502.284 605.441C504.673 603.707 506.275 601.095 506.74 598.18L511.74 566.78C511.974 565.334 511.921 563.856 511.583 562.431C511.245 561.005 510.629 559.661 509.771 558.474C508.912 557.287 507.828 556.28 506.581 555.513C505.333 554.745 503.947 554.231 502.5 554ZM504.12 597.72C503.764 599.925 502.548 601.9 500.74 603.212C498.931 604.524 496.677 605.066 494.47 604.72L389.06 588.02C386.855 587.659 384.882 586.441 383.571 584.631C382.26 582.822 381.717 580.568 382.06 578.36L387.06 546.96C387.419 544.754 388.636 542.779 390.446 541.468C392.256 540.156 394.512 539.614 396.72 539.96L502.12 556.66C504.326 557.019 506.301 558.236 507.613 560.046C508.924 561.856 509.466 564.112 509.12 566.32L504.12 597.72Z" fill="#FF8E39"/>
<path d="M424.38 557.33C425.95 559.15 426.48 561.66 425.97 564.84C425.46 568.02 424.17 570.21 422.08 571.39C419.99 572.57 417.08 572.86 413.23 572.26L409.8 571.71L408.66 578.9L402.9 578L407 552.21L416.11 553.65C420.037 554.283 422.793 555.51 424.38 557.33ZM418.55 566.8C419.455 565.955 420.015 564.804 420.12 563.57C420.276 562.981 420.28 562.363 420.133 561.772C419.986 561.182 419.693 560.637 419.28 560.19C418.133 559.274 416.742 558.714 415.28 558.58L412 558.06L410.62 566.73L414.5 567.35C416.38 567.65 417.74 567.47 418.55 566.8Z" fill="#FF8E39"/>
<path d="M444.73 584.62L443.21 578.62L432.41 577L429.13 582.19L423 581.19L438.23 557.19L443.8 558.07L450.85 585.62L444.73 584.62ZM439.82 565.28L435.38 572.28L441.84 573.28L439.82 565.28Z" fill="#FF8E39"/>
<path d="M457.92 560.28L463.68 561.19L459.59 587L453.84 586.09L457.92 560.28Z" fill="#FF8E39"/>
<path d="M489.18 568.69C491.28 571.357 492.013 574.69 491.38 578.69C490.75 582.69 489.05 585.69 486.28 587.63C483.51 589.57 479.67 590.18 474.75 589.4L465.93 588L470 562.2L479.11 563.64C483.703 564.373 487.06 566.057 489.18 568.69ZM482.53 583.35C483.383 582.702 484.091 581.882 484.608 580.943C485.125 580.005 485.439 578.968 485.53 577.9C485.768 576.841 485.784 575.745 485.578 574.679C485.371 573.614 484.946 572.603 484.33 571.71C483.14 570.12 481.07 569.1 478.15 568.63L474.94 568.13L472.5 583.8L476.15 584.38C478.33 584.876 480.617 584.507 482.53 583.35Z" fill="#FF8E39"/>
<path opacity="0.1" d="M345.702 267.23L109.343 364.313L158.287 483.473L394.646 386.39L345.702 267.23Z" fill="#20313F"/>
<path d="M214.33 156.58C213.106 156.379 211.95 155.881 210.964 155.129C209.977 154.378 209.19 153.396 208.67 152.27C208.03 150.898 207.821 149.364 208.07 147.87L209.54 138.87C209.864 136.886 210.962 135.112 212.594 133.939C214.225 132.765 216.256 132.287 218.24 132.61L425.24 166.44L466.59 185.44L421.33 190.33L214.33 156.58Z" fill="#25353A"/>
<path d="M767.59 720.92C763.327 720.912 759.211 719.36 756.005 716.55C752.798 713.741 750.718 709.865 750.15 705.64H750V703.8C750 703.64 750 703.49 750 703.33V696.14L750.69 597.14C750.063 596.508 749.567 595.758 749.23 594.933C748.894 594.109 748.724 593.226 748.731 592.335C748.737 591.445 748.92 590.565 749.268 589.745C749.617 588.925 750.123 588.183 750.76 587.56L751.67 457.67H753.67V450.5C753.672 449.407 753.94 448.331 754.453 447.365C754.965 446.4 755.706 445.574 756.61 444.96L753.48 429.49L755.54 427.98C757.337 426.545 758.919 424.862 760.24 422.98C761.47 421.2 762.99 414.14 763.71 408.63L767.71 404.63L771.71 408.63C772.43 414.15 773.96 421.2 775.18 422.98C776.504 424.866 778.094 426.55 779.9 427.98L781.9 429.49L781.41 431.99L778.78 444.99C779.684 445.604 780.425 446.43 780.937 447.395C781.449 448.361 781.718 449.437 781.72 450.53V456.87V457.7H783.46L784.37 587.59C785.005 588.214 785.51 588.958 785.856 589.777C786.203 590.597 786.384 591.477 786.39 592.368C786.396 593.258 786.225 594.14 785.889 594.964C785.553 595.788 785.057 596.538 784.43 597.17L785.13 696.17V700.17V705.67H785C784.428 709.885 782.35 713.751 779.15 716.554C775.95 719.357 771.844 720.908 767.59 720.92Z" fill="#25353A"/>
<path d="M760.4 447.83H775C775.713 447.83 776.398 448.113 776.902 448.618C777.407 449.122 777.69 449.807 777.69 450.52V462.32H757.69V450.52C757.69 450.165 757.76 449.814 757.897 449.486C758.033 449.158 758.233 448.861 758.485 448.611C758.737 448.361 759.036 448.163 759.364 448.029C759.693 447.895 760.045 447.827 760.4 447.83Z" fill="#F39C12"/>
<path d="M761.43 448.47H774L777.5 431.22C775.329 429.515 773.427 427.493 771.86 425.22C769.34 421.54 767.73 409.13 767.73 409.13C767.73 409.13 766.12 421.54 763.59 425.22C762.023 427.493 760.121 429.515 757.95 431.22L761.43 448.47Z" fill="#F1C40F"/>
<path d="M767.71 433.52C768.599 433.52 769.32 432.799 769.32 431.91C769.32 431.021 768.599 430.3 767.71 430.3C766.821 430.3 766.1 431.021 766.1 431.91C766.1 432.799 766.821 433.52 767.71 433.52Z" fill="#3B3B3B"/>
<path d="M767.62 432.62H767.79V410.84H767.62V432.62Z" fill="#3B3B3B"/>
<path d="M779.5 461.69H755.69L754 703.33C754.096 706.872 755.571 710.236 758.11 712.707C760.649 715.179 764.052 716.561 767.595 716.561C771.138 716.561 774.541 715.179 777.08 712.707C779.619 710.236 781.094 706.872 781.19 703.33L779.5 461.69Z" fill="#3B3B3B"/>
<path d="M754 701.64H781.19V700.15H754V701.64Z" fill="#F1C40F"/>
<path d="M770.35 701.64H765.06V628.31C765.06 627.899 765.223 627.505 765.514 627.214C765.805 626.923 766.199 626.76 766.61 626.76H768.79C769.201 626.76 769.595 626.923 769.886 627.214C770.177 627.505 770.34 627.899 770.34 628.31V701.64H770.35Z" fill="#F1C40F"/>
<path d="M779.61 589.6H755.57C754.029 589.6 752.78 590.849 752.78 592.39C752.78 593.931 754.029 595.18 755.57 595.18H779.61C781.151 595.18 782.4 593.931 782.4 592.39C782.4 590.849 781.151 589.6 779.61 589.6Z" fill="#F1C40F"/>
<path opacity="0.1" d="M759.07 460L757.38 700.89H762.45L764.14 460H759.07Z" fill="white"/>
<g style="mix-blend-mode:overlay" opacity="0.2">
<path d="M777.81 460H774.43L776.12 700.89H779.5L777.81 460Z" fill="black"/>
</g>
<path opacity="0.1" d="M763.61 447.83H760.4V462.33H763.61V447.83Z" fill="white"/>
<g style="mix-blend-mode:overlay" opacity="0.2">
<path d="M775.02 447.83H772.58V462.33H775.02V447.83Z" fill="black"/>
</g>
<path d="M217.6 136.59L383.6 163.72L422.34 170.05L419.71 186.05L400.46 182.9L381 179.76L215 152.63C214.065 152.473 213.231 151.953 212.678 151.183C212.125 150.413 211.9 149.456 212.05 148.52L213.51 139.52C213.672 138.593 214.191 137.767 214.956 137.219C215.721 136.671 216.67 136.445 217.6 136.59Z" fill="#2980B9"/>
<path d="M422.33 170.05L419.7 186.09L421.4 186.37L451.73 183.09L424.02 170.33L422.33 170.05Z" fill="#F1C40F"/>
<path d="M444.8 179.9L451.73 183.09L444.15 183.91L444.8 179.9Z" fill="#3B3B3B"/>
<path d="M217.6 136.59L233.92 139.26L231.3 155.26L215 152.63C214.065 152.473 213.231 151.953 212.678 151.183C212.125 150.413 211.9 149.456 212.05 148.52L213.51 139.52C213.672 138.593 214.191 137.767 214.956 137.219C215.721 136.671 216.67 136.445 217.6 136.59Z" fill="#D35400"/>
<path d="M229.596 155.033L232.981 155.586L235.602 139.549L232.217 138.996L229.596 155.033Z" fill="#3B3B3B"/>
<path d="M348.439 260.708L112.08 357.791L161.024 476.951L397.383 379.868L348.439 260.708Z" fill="#25353A"/>
<path d="M346.259 265.928L117.3 359.971L163.204 471.731L392.163 377.688L346.259 265.928Z" fill="#89B748"/>
<path d="M385.012 374.707L343.275 273.094L124.464 362.969L166.2 464.582L385.012 374.707Z" fill="#D6E595"/>
<path d="M138.39 396.89L138.66 396.79C143.117 394.961 147.17 392.271 150.587 388.875C154.004 385.479 156.719 381.443 158.576 376.998C160.433 372.553 161.397 367.785 161.411 362.967C161.425 358.15 160.491 353.376 158.66 348.92L124.47 362.92L138.39 396.89Z" fill="#89B748"/>
<path d="M152.26 430.65C152.346 430.616 152.43 430.576 152.51 430.53C156.967 428.699 161.741 427.764 166.559 427.779C171.378 427.793 176.146 428.756 180.592 430.613C185.038 432.47 189.075 435.185 192.472 438.603C195.869 442.02 198.56 446.073 200.39 450.53L166.19 464.58L152.26 430.65Z" fill="#89B748"/>
<path d="M357.2 307C357.12 307.046 357.036 307.086 356.95 307.12C352.493 308.951 347.719 309.886 342.901 309.871C338.082 309.857 333.314 308.894 328.868 307.037C324.422 305.18 320.385 302.465 316.988 299.047C313.591 295.63 310.901 291.577 309.07 287.12L343.27 273.07L357.2 307Z" fill="#89B748"/>
<path d="M371.07 340.78L370.81 340.87C366.353 342.7 362.3 345.391 358.883 348.788C355.465 352.185 352.75 356.222 350.893 360.668C349.036 365.114 348.073 369.882 348.059 374.701C348.044 379.519 348.979 384.293 350.81 388.75L385 374.7L371.07 340.78Z" fill="#89B748"/>
<path d="M254.73 411.2C278.13 411.2 297.1 392.23 297.1 368.83C297.1 345.43 278.13 326.46 254.73 326.46C231.33 326.46 212.36 345.43 212.36 368.83C212.36 392.23 231.33 411.2 254.73 411.2Z" fill="#89B748"/>
<path d="M272.56 380.23C271.385 383.174 269.3 385.665 266.61 387.34L270.23 396.16L263.86 398.77L260.38 390.29C255.743 391.907 250.68 391.808 246.11 390.01L248.61 383.24C252.081 384.642 255.965 384.62 259.42 383.18C260.987 382.639 262.323 381.581 263.21 380.18C263.561 379.578 263.761 378.899 263.794 378.203C263.827 377.507 263.692 376.813 263.4 376.18C263.095 375.36 262.573 374.637 261.89 374.09C261.083 373.569 260.15 373.276 259.19 373.24C257.576 373.148 255.957 373.191 254.35 373.37C249.723 373.75 246.177 373.417 243.71 372.37C242.467 371.811 241.347 371.011 240.417 370.015C239.486 369.019 238.763 367.848 238.29 366.57C237.718 365.279 237.423 363.882 237.423 362.47C237.423 361.058 237.718 359.661 238.29 358.37C239.59 355.539 241.758 353.196 244.48 351.68L241.11 343.47L247.48 340.86L250.87 349.12C254.563 348.22 258.444 348.471 261.99 349.84L259.89 356.31C256.843 355.235 253.509 355.306 250.51 356.51C249.185 356.975 248.034 357.833 247.21 358.97C246.901 359.445 246.718 359.99 246.677 360.555C246.637 361.12 246.741 361.686 246.98 362.2C247.238 362.931 247.735 363.555 248.39 363.97C249.227 364.391 250.153 364.603 251.09 364.59C252.826 364.631 254.563 364.561 256.29 364.38C260.543 364.027 263.937 364.36 266.47 365.38C269.003 366.4 270.93 368.523 272.25 371.75C273.449 374.43 273.56 377.47 272.56 380.23Z" fill="#D6E595"/>
<path opacity="0.1" d="M267.79 585.01C289.572 585.01 307.23 567.352 307.23 545.57C307.23 523.788 289.572 506.13 267.79 506.13C246.008 506.13 228.35 523.788 228.35 545.57C228.35 567.352 246.008 585.01 267.79 585.01Z" fill="#20313F"/>
<path d="M154.89 770.16C152.471 768.654 150.749 766.25 150.1 763.475C149.451 760.701 149.93 757.782 151.43 755.36L206.7 666.36C208.201 663.962 210.584 662.249 213.336 661.593C216.088 660.936 218.988 661.388 221.41 662.85L387.68 766.1C390.099 767.606 391.821 770.01 392.47 772.785C393.119 775.559 392.64 778.478 391.14 780.9L335.87 869.9C334.371 872.3 331.988 874.014 329.236 874.673C326.484 875.331 323.583 874.881 321.16 873.42L154.89 770.16Z" fill="#25353A"/>
<path opacity="0.1" d="M148 771.84C145.581 770.334 143.859 767.93 143.21 765.155C142.561 762.381 143.04 759.462 144.54 757.04L199.81 668.04C201.309 665.64 203.692 663.926 206.444 663.267C209.196 662.609 212.097 663.059 214.52 664.52L380.81 767.78C383.231 769.284 384.955 771.688 385.604 774.464C386.253 777.239 385.773 780.158 384.27 782.58L329 871.58C327.499 873.978 325.116 875.691 322.364 876.347C319.612 877.004 316.712 876.552 314.29 875.09L148 771.84Z" fill="#20313F"/>
<path d="M385.569 769.496L219.393 666.302C216.226 664.336 212.065 665.309 210.098 668.476L154.832 757.472C152.865 760.639 153.838 764.8 157.005 766.767L323.181 869.961C326.348 871.927 330.509 870.954 332.476 867.787L387.742 778.791C389.709 775.624 388.736 771.463 385.569 769.496Z" fill="#E5B855"/>
<path d="M379.427 792.171L201.783 681.855L188.483 703.271L366.127 813.587L379.427 792.171Z" fill="#2E302B"/>
<path d="M266.172 764.954L189.978 717.638L178.019 736.897L254.213 784.213L266.172 764.954Z" fill="#FFFEFF"/>
<path d="M334.072 828.971L294.697 804.519C292.839 803.365 290.398 803.936 289.244 805.794C288.09 807.652 288.661 810.094 290.519 811.247L329.894 835.699C331.752 836.853 334.194 836.282 335.347 834.424C336.501 832.566 335.93 830.125 334.072 828.971Z" fill="#C19E61"/>
<path d="M326.431 841.265L269.055 805.634C267.197 804.481 264.755 805.051 263.601 806.909C262.448 808.767 263.018 811.209 264.876 812.363L322.253 847.993C324.111 849.147 326.553 848.576 327.706 846.718C328.86 844.86 328.289 842.419 326.431 841.265Z" fill="#C19E61"/>
<path d="M272.79 580.01C294.572 580.01 312.23 562.352 312.23 540.57C312.23 518.788 294.572 501.13 272.79 501.13C251.008 501.13 233.35 518.788 233.35 540.57C233.35 562.352 251.008 580.01 272.79 580.01Z" fill="#25353A"/>
<path d="M272.79 576.01C292.363 576.01 308.23 560.143 308.23 540.57C308.23 520.997 292.363 505.13 272.79 505.13C253.217 505.13 237.35 520.997 237.35 540.57C237.35 560.143 253.217 576.01 272.79 576.01Z" fill="#FFD066"/>
<path d="M272.79 509.46C266.637 509.458 260.621 511.281 255.504 514.698C250.386 518.115 246.397 522.973 244.041 528.658C241.685 534.342 241.067 540.598 242.267 546.633C243.466 552.669 246.428 558.213 250.778 562.565C255.129 566.916 260.672 569.88 266.707 571.081C272.742 572.283 278.998 571.667 284.683 569.313C290.368 566.959 295.228 562.971 298.646 557.855C302.065 552.739 303.89 546.723 303.89 540.57C303.891 536.485 303.088 532.44 301.526 528.665C299.963 524.891 297.673 521.461 294.785 518.572C291.897 515.684 288.468 513.392 284.694 511.828C280.92 510.265 276.875 509.46 272.79 509.46ZM272.79 569.46C267.065 569.462 261.469 567.766 256.708 564.587C251.947 561.408 248.237 556.888 246.045 551.599C243.853 546.311 243.279 540.491 244.396 534.877C245.512 529.262 248.268 524.104 252.316 520.056C256.364 516.008 261.522 513.252 267.137 512.136C272.751 511.019 278.571 511.593 283.859 513.785C289.148 515.976 293.668 519.687 296.847 524.448C300.026 529.209 301.722 534.805 301.72 540.53C301.712 548.204 298.663 555.562 293.24 560.992C287.818 566.422 280.464 569.481 272.79 569.5V569.46Z" fill="#EBAB06"/>
<path d="M271.34 554.54C269.07 554.399 266.874 553.679 264.96 552.45L266.88 547.77C268.637 549.105 270.765 549.863 272.97 549.94C276.043 549.94 277.577 548.88 277.57 546.76C277.557 545.651 277.141 544.585 276.4 543.76C275.111 542.494 273.599 541.477 271.94 540.76C270.345 540.033 268.845 539.117 267.47 538.03C266.683 537.309 266.062 536.425 265.65 535.44C265.219 534.373 265.005 533.231 265.02 532.08C264.998 530.321 265.605 528.612 266.73 527.26C267.918 525.848 269.538 524.867 271.34 524.47V520.83H275.94V524.27C277.91 524.338 279.82 524.962 281.45 526.07L279.86 530.57C278.19 529.3 276.157 528.599 274.06 528.57C273.549 528.541 273.037 528.615 272.554 528.787C272.072 528.959 271.628 529.225 271.25 529.57C270.923 529.889 270.665 530.272 270.493 530.695C270.32 531.119 270.238 531.573 270.25 532.03C270.25 533.723 272.117 535.477 275.85 537.29C277.385 537.979 278.818 538.874 280.11 539.95C280.968 540.746 281.65 541.714 282.11 542.79C282.579 543.931 282.811 545.156 282.79 546.39C282.817 548.193 282.176 549.942 280.99 551.3C279.669 552.765 277.919 553.776 275.99 554.19V558.81H271.39L271.34 554.54Z" fill="#EBAB06"/>
<path opacity="0.1" d="M690.47 335.1C712.252 335.1 729.91 317.442 729.91 295.66C729.91 273.878 712.252 256.22 690.47 256.22C668.688 256.22 651.03 273.878 651.03 295.66C651.03 317.442 668.688 335.1 690.47 335.1Z" fill="#20313F"/>
<path d="M695.47 330.1C717.252 330.1 734.91 312.442 734.91 290.66C734.91 268.878 717.252 251.22 695.47 251.22C673.688 251.22 656.03 268.878 656.03 290.66C656.03 312.442 673.688 330.1 695.47 330.1Z" fill="#25353A"/>
<path d="M695.47 326.1C715.043 326.1 730.91 310.233 730.91 290.66C730.91 271.087 715.043 255.22 695.47 255.22C675.897 255.22 660.03 271.087 660.03 290.66C660.03 310.233 675.897 326.1 695.47 326.1Z" fill="#FFD066"/>
<path d="M695.47 259.56C689.317 259.56 683.301 261.385 678.185 264.804C673.069 268.223 669.082 273.082 666.727 278.767C664.373 284.452 663.757 290.708 664.958 296.743C666.16 302.778 669.124 308.321 673.475 312.672C677.827 317.022 683.371 319.984 689.407 321.183C695.442 322.383 701.698 321.765 707.382 319.409C713.067 317.053 717.925 313.064 721.342 307.947C724.759 302.829 726.582 296.813 726.58 290.66C726.58 286.575 725.775 282.53 724.212 278.756C722.648 274.982 720.356 271.553 717.467 268.665C714.579 265.777 711.149 263.487 707.375 261.924C703.6 260.362 699.555 259.559 695.47 259.56ZM695.47 319.56C689.746 319.56 684.151 317.863 679.392 314.683C674.633 311.503 670.923 306.983 668.733 301.695C666.543 296.407 665.969 290.588 667.086 284.974C668.203 279.36 670.959 274.204 675.006 270.156C679.054 266.109 684.21 263.353 689.824 262.236C695.438 261.119 701.257 261.693 706.545 263.883C711.833 266.073 716.353 269.783 719.533 274.542C722.713 279.301 724.41 284.896 724.41 290.62C724.405 298.297 721.355 305.659 715.93 311.092C710.505 316.524 703.147 319.584 695.47 319.6V319.56Z" fill="#EBAB06"/>
<path d="M694 304.63C691.728 304.491 689.529 303.775 687.61 302.55L689.54 297.87C691.293 299.206 693.417 299.964 695.62 300.04C698.693 300.04 700.227 298.98 700.22 296.86C700.208 295.751 699.792 294.684 699.05 293.86C697.765 292.588 696.252 291.57 694.59 290.86C692.993 290.135 691.491 289.215 690.12 288.12C689.329 287.402 688.707 286.518 688.3 285.53C687.868 284.467 687.654 283.328 687.67 282.18C687.647 280.419 688.257 278.708 689.39 277.36C690.569 275.937 692.193 274.954 694 274.57V270.93H698.6V274.36C700.568 274.431 702.475 275.059 704.1 276.17L702.51 280.67C700.84 279.401 698.807 278.7 696.71 278.67C696.2 278.641 695.69 278.715 695.209 278.886C694.728 279.058 694.286 279.325 693.91 279.67C693.581 279.988 693.322 280.371 693.15 280.794C692.978 281.218 692.896 281.673 692.91 282.13C692.91 283.81 694.78 285.57 698.52 287.39C700.055 288.077 701.489 288.972 702.78 290.05C703.642 290.839 704.324 291.804 704.78 292.88C705.253 294.024 705.488 295.252 705.47 296.49C705.491 298.294 704.847 300.042 703.66 301.4C702.34 302.865 700.589 303.873 698.66 304.28V308.9H694V304.63Z" fill="#EBAB06"/>
</svg>
