<svg xmlns="http://www.w3.org/2000/svg" width="48" height="48" viewBox="0 0 48 48"><defs><linearGradient id="b" x1="6" x2="6" y1="0" y2="20" gradientUnits="userSpaceOnUse"><stop offset="0%" stop-color="#79CF39"/><stop offset="100%" stop-color="#B1E96B"/></linearGradient><linearGradient id="d" x1="6" x2="6" y1="0" y2="28" gradientUnits="userSpaceOnUse"><stop offset="0%" stop-color="#515DF5"/><stop offset="100%" stop-color="#8996FB"/></linearGradient><linearGradient id="f" x1="6" x2="6" y1="0" y2="36" gradientUnits="userSpaceOnUse"><stop offset="0%" stop-color="#A451F5"/><stop offset="100%" stop-color="#D089FB"/></linearGradient><clipPath id="a"><path d="M8,0 C10.209139,-4.05812251e-16 12,1.790861 12,4 L12,16 C12,18.209139 10.209139,20 8,20 L4,20 C1.790861,20 2.705415e-16,18.209139 0,16 L0,4 C-2.705415e-16,1.790861 1.790861,4.05812251e-16 4,0 L8,0 Z"/></clipPath><clipPath id="c"><path d="M8,0 C10.209139,-4.05812251e-16 12,1.790861 12,4 L12,24 C12,26.209139 10.209139,28 8,28 L4,28 C1.790861,28 2.705415e-16,26.209139 0,24 L0,4 C-2.705415e-16,1.790861 1.790861,4.05812251e-16 4,0 L8,0 Z"/></clipPath><clipPath id="e"><path d="M8,0 C10.209139,-4.05812251e-16 12,1.790861 12,4 L12,32 C12,34.209139 10.209139,36 8,36 L4,36 C1.790861,36 2.705415e-16,34.209139 0,32 L0,4 C-2.705415e-16,1.790861 1.790861,4.05812251e-16 4,0 L8,0 Z"/></clipPath></defs><g transform="translate(6 6)"><g clip-path="url(#a)" transform="translate(0 16)"><polygon fill="url(#b)" points="0 0 12 0 12 20 0 20 0 0"/></g><g clip-path="url(#c)" transform="translate(12 8)"><polygon fill="url(#d)" points="0 0 12 0 12 28 0 28 0 0"/></g><g clip-path="url(#e)" transform="translate(24)"><polygon fill="url(#f)" points="0 0 12 0 12 36 0 36 0 0"/></g></g></svg>